<?xml version="1.0" encoding="utf-8"?>
<!-- Generator: Adobe Illustrator 19.2.0, SVG Export Plug-In . SVG Version: 6.00 Build 0)  -->
<svg version="1.1" id="Calque_1" xmlns="http://www.w3.org/2000/svg" xmlns:xlink="http://www.w3.org/1999/xlink" x="0px" y="0px"
	 viewBox="0 0 461 467.7" style="enable-background:new 0 0 461 467.7;" xml:space="preserve">
<style type="text/css">
	.st0{fill:#323537;}
	.st1{display:none;fill:#FFFFFF;}
	.st2{fill:#AC9D71;}
</style>
<g>
	<g>
		<path class="st0" d="M461,232.8C461.5,362,358.7,467,231.4,467.7C104.2,468.2,0.6,363.9,0,234.8C-0.5,105.7,102.2,0.5,229.4,0
			C356.8-0.6,460.4,103.7,461,232.8z"/>
		<path class="st1" d="M565.5,64.9c61.3-0.3,116.9,24.7,157.2,65.3c40.2,40.5,65.3,96.7,65.5,158.8c0.2,62.1-24.4,118.5-64.3,159.5
			c-39.9,40.9-95.3,66.3-156.6,66.5c-61.2,0.3-116.8-24.7-157.1-65.3c-40.3-40.5-65.4-96.7-65.6-158.8
			c-0.3-62.1,24.3-118.5,64.3-159.4C448.9,90.6,504.2,65.2,565.5,64.9L565.5,64.9z M717.1,135.9c-38.9-39.1-92.5-63.2-151.6-62.9
			c-59.1,0.3-112.5,24.8-151,64.2c-38.5,39.5-62.3,93.8-62,153.8c0.2,59.9,24.4,114.1,63.3,153.2c38.9,39.1,92.5,63.1,151.5,62.9
			c59-0.3,112.4-24.7,151-64.3c38.5-39.4,62.3-93.8,61.9-153.7C780.1,229.1,755.9,175,717.1,135.9L717.1,135.9z"/>
	</g>
	<g>
		<path class="st2" d="M158.8,132.7c-0.1,0.7-0.1,1.8-0.1,3.3c0,8.8,2.5,16.6,7.6,23.2c5,6.6,12.1,10,21.2,10
			c2.8-7.2,4.8-12.7,6.3-16.3c1.4-3.7,3.3-8.7,5.6-15c2.4-6.3,4.4-11,6-14.3c1.6-3.3,3.6-7.1,6-11.3c2.4-4.3,4.6-7.4,6.5-9.5
			c2-2,4.2-3.8,6.6-5.4c2.4-1.6,4.8-2.4,7.3-2.4c2.4,0,4.3,1.2,5.6,3.7c1.3,2.4,1.9,5.7,1.9,9.7c0,6.8-1.5,14.2-4.5,22.3
			c-3,8.1-7.8,15.9-14.3,23.3c-6.5,7.5-13.9,12.3-22.2,14.7c-8.7,30.1-17.8,52.7-27.4,67.6c2.9,0.9,8.8,2.9,17.5,5.6
			c8.7,2.8,15,4.7,18.8,5.9c3.8,1.1,8.6,2.3,14.5,3.4c5.9,1.2,11,1.8,15.4,1.8c6.3,0,11.6-1.1,16-3.1l0.3,0.6
			c-8.5,10.4-18.7,15.5-30.7,15.5c-5.7,0-12.2-1.2-19.6-3.6c-7.3-2.4-13.3-4.7-18-7c-4.6-2.3-11.4-5.8-20.3-10.4
			c-12.2,15.5-26.7,23.2-43.4,23.2c-9.7,0-17-2.1-22.1-6.3c-5-4.2-7.5-9.3-7.5-15.1c0-5.6,2-10.4,6-14.5c4-4.2,9.4-6.3,16.1-6.3
			c13.2,0,28.5,2.3,46.1,6.9c6.9-12.2,16-33.2,27.1-63c-9.2-0.1-16.3-3.5-21.4-10.2c-5.1-6.7-7.6-14.5-7.6-23.6c0-1.6,0-2.8,0.1-3.6
			H158.8z M113.6,227.9c-5.5,0-9.9,1.7-13.2,5.3c-3.3,3.6-4.8,7.8-4.8,12.6c0,5.7,2.2,10.6,6.5,14.6c4.3,4.1,10.7,6.1,19.1,6.1
			c12.1,0,23.7-8.7,34.7-26.1C138.3,232,124.2,227.9,113.6,227.9z M230.9,96.2c-1.4,0-2.8,0.4-4.1,1.2c-1.3,0.8-2.6,2-3.9,3.7
			c-1.2,1.7-2.4,3.5-3.4,5.3c-1.1,1.8-2.2,4.3-3.5,7.5c-1.2,3.1-2.3,6-3.3,8.3c-1,2.4-2.1,5.7-3.4,9.8c-1.2,4.2-2.3,7.7-3.2,10.6
			c-0.9,2.9-2.1,6.8-3.5,11.8c-1.5,5-2.8,8.9-3.7,11.9c10-4.6,18.6-13.6,25.7-27.1c7-13.5,10.6-24.9,10.6-34.4
			C235.2,99.1,233.8,96.2,230.9,96.2z"/>
	</g>
	<g>
		<path class="st2" d="M358.7,170.1c-4.3,2.4-7.5,4.4-9.7,5.9c15.4,14.4,23,33,23,55.8c0,12.2-2.4,24.2-7,35.9
			c-4.8,11.6-11.4,22.2-20,31.8c-8.5,9.5-19.6,17.2-33.3,23c-13.6,5.9-28.5,8.8-44.8,8.8c-16.7,0-34.3-4.7-53.3-14.1
			c-14.4,6.4-29.6,9.6-45.5,9.6c-24.1,0-43.1-3.6-57-10.6c-13.9-7.1-20.9-14.8-20.9-23.2c0-5.3,3.1-9.8,9.2-13.4
			c6.2-3.6,14.8-5.3,25.8-5.3c6.4,0,12.6,0.6,18.4,1.9c5.9,1.3,11.8,3.4,17.9,6.4c6,2.9,10.9,5.6,14.5,7.8c3.6,2.3,9,5.7,16.2,10.1
			c7.2,4.5,12.1,7.6,14.7,9.2c8.5-6.6,18.4-16.5,29.5-29.6c11.1-13,21.3-25.4,30.4-37.1c9.2-11.7,20.1-23.8,33.1-36.3
			c12.9-12.4,25.9-21.9,38.7-28.5c-12.5-15.9-31.1-23.8-56-23.8c-14.1,0-28.1,4-42.3,12.1c-14,8-25.9,19.1-35.3,33.2
			c-9.4,14.1-14.2,29.2-14.2,45c0,11.3,3,20.3,9.2,26.9c6.1,6.6,14.8,9.9,26.1,9.9l-0.2,0.6c-13.4,0-23.6-4.2-30.7-12.7
			c-7-8.5-10.6-19.2-10.6-32.1c0-14.5,4.4-28.3,13.1-41.4c8.8-13,20.6-23.4,35.7-31.3c15-7.8,31-11.7,48.2-11.7
			c27.3,0,49.1,7.1,65.5,21.4C350.5,172.9,354.2,171.5,358.7,170.1z M167.6,325.2c11.8,0,23.8-4.3,36-12.9
			c-4.7-2.9-11.6-6.9-20.7-12.2c-9-5.3-16.1-9.5-21.2-12.5c-5.1-2.9-11.1-5.7-18.3-8.2c-7.1-2.5-13.6-3.7-19.6-3.7
			c-9.3,0-16.3,1.3-21,4.1c-4.7,2.8-7.1,6.4-7.1,10.7c0,8.1,6.7,16,20.2,23.6C129.5,321.4,146.7,325.2,167.6,325.2z M264.9,329.5
			c11.4,0,22-2.5,31.9-7.5c9.7-4.9,17.9-11.3,24.7-19.1c6.6-7.7,12.3-16.3,17.1-26c4.8-9.6,8.3-18.9,10.4-28.1
			c2.1-9.2,3.2-17.8,3.2-25.6c0-16.3-3.7-30.1-10.9-41.3c-8.2,6.5-16.6,14.9-24.9,25c-8.4,10.2-16.1,20.3-23.2,30.3
			c-7,9.9-14.4,19.9-22,29.8c-7.7,9.9-16.1,19.2-25.4,27.9c-9.3,8.7-19.1,15.7-29.2,20.7C233.1,324.9,249.2,329.5,264.9,329.5z"/>
	</g>
</g>
</svg>
