<?xml version="1.0" encoding="utf-8"?>
<!-- Generator: Adobe Illustrator 19.2.0, SVG Export Plug-In . SVG Version: 6.00 Build 0)  -->
<svg version="1.1" id="Calque_1" xmlns="http://www.w3.org/2000/svg" xmlns:xlink="http://www.w3.org/1999/xlink" x="0px" y="0px"
	 viewBox="0 0 1056.4 101.3" style="enable-background:new 0 0 1056.4 101.3;" xml:space="preserve">
<style type="text/css">
	.st0{fill:#FFFFFF;}
	.st1{display:none;fill:#FFFFFF;}
</style>
<g>
	<path class="st0" d="M143.1,42.2c-8.1,9.2-17.9,16.6-29.3,22.6C100.3,72,87,75.9,74,76.7c-5,5.8-9.5,10.2-13.4,13
		c-5.8,4-12.7,6.8-20.7,8.2c9.9,0,18.8-0.1,26.6-0.3c16.5-0.2,29.4-1.4,38.6-3.3c14.5-3.2,27.2-10.8,38.2-22.8
		c-6.9,8.4-12.4,14.2-16.5,17.3c-7.3,5.3-16.3,8.7-27,10.1c-7.6,1-20.7,1.5-39.4,1.5c-2.2,0-5.3,0-9.5-0.2c-4.1-0.2-7.3-0.3-9.4-0.3
		c-2.9,0-7.1,0.3-12.7,0.7c-5.6,0.4-9.9,0.7-12.7,0.7h-3c-1.2,0-2.6,0-4.1-0.1C3,100.9,0,99.6,0,97.3c0-2.3,4-3.5,12-3.5
		c1.6,0,3.2,0.2,4.9,0.5c2.2,0.6,4.5,1.2,7,1.9c2.5,0.7,4.6,1,6.4,1c4.3,0,8.3-0.7,11.8-2.1c7.7-2.8,15.2-9,22.4-18.5
		c-10.6-0.7-19.2-3.1-25.8-7.2c-7.2-4.3-10.8-9.8-10.8-16.5c0-3.3,0.9-6.4,2.6-9.3c2.9-4.7,7.4-8.4,13.7-11
		c6.3-2.6,13.6-3.9,21.9-3.9c3.8,0,8.1,0.5,12.9,1.6c4.8,1.1,8.6,2.4,11.5,4c4.6-8.2,10.9-15.5,18.9-21.9C119.7,4.2,129.8,0,139.9,0
		c11.1,0,16.7,4.8,16.7,14.2C156.5,22.9,152.1,32.2,143.1,42.2z M62.8,30.9c-9.1,0-16.3,1.8-21.6,5.6c-5.3,3.8-7.9,8.6-7.9,14.6
		c0,6.2,3.2,11.2,9.8,14.9c6,3.5,14.1,5.6,24.4,6.2C80.6,50.8,87.8,39,89,36.8C82.8,32.9,74.1,30.9,62.8,30.9z M137.6,1.6
		c-2.9,0-5.8,0.7-8.8,2.1c-6.5,3.2-12.9,8.7-19.3,16.3c-5.3,6.2-9.5,12.5-12.6,18.8c2,2.3,3.6,4,4.7,5.2c1.8,2.5,2.7,4.5,2.7,6
		c0,2.3-1.3,3.5-4,3.5c-2.6,0-4-1.1-4-3.4c0-0.3,0-0.9,0-1.6c0-0.7,0-1.2,0-1.5c0-1.4-0.6-2.9-1.8-4.6c-7.9,13.5-14,23.6-18.3,30.3
		c6.8-0.3,13.3-1.6,19.7-3.6c18.6-6.1,33.3-16.7,44.1-31.9c6.8-9.4,10.2-18.3,10.2-26.6C150.2,4.5,146,1.6,137.6,1.6z"/>
	<path class="st0" d="M197.2,93.2c-6.1,5.4-13,8.2-20.7,8.2c-6.1,0-9.2-2.8-9.2-8.3c0-2.5,0.4-4.5,1.2-6.1
		c-4.9,5.4-9.8,9.3-14.8,11.8c-3.6,1.7-6.8,2.6-9.6,2.6c-1.5,0-3-0.2-4.5-0.5c-5.3-1.2-7.9-5.1-7.9-11.7c0-9.8,6.3-19,18.9-27.8
		c11.9-8.3,23.8-12.5,35.6-12.5c1.1,0,2.2,0.1,3.2,0.3c1.1,0.2,1.9,0.3,2.5,0.3c1.2,0,2.1-0.2,2.6-0.6c1.2-1.3,2.9-1.8,4.9-1.8
		c1.9,0,2.8,0.4,2.8,1c0,0.8-0.9,2.1-2.6,3.7c-1.2,1.3-2.4,2.4-3.6,3.7c-3.8,4.5-7.6,9.5-11.4,15.2c-5.9,8.7-8.8,15.1-8.8,19.4
		s1.9,6.3,5.7,6.3c4,0,8.1-1.1,12-3.2c5.7-3.2,11.4-8.9,17.3-17C206.1,83.6,201.5,89.4,197.2,93.2z M185,51.5c-5,0-10.2,1-15.5,3
		c-8.5,3.2-15.5,7.9-21,14c-5.5,6.1-8.2,12.3-8.2,18.6c0,6.4,2.8,9.7,8.5,9.7c0.9,0,2.3-0.3,4.1-1c7.2-2.7,12.9-7.1,17.1-13
		c1.2-2.9,2.2-5.1,2.8-6.6c5.9-9.9,11.5-17.5,16.9-22.9C189.7,52,188.1,51.5,185,51.5z"/>
	<path class="st0" d="M391.2,42.2c-8.1,9.2-17.9,16.6-29.3,22.6C348.3,72,335,75.9,322,76.7c-5,5.8-9.5,10.2-13.4,13
		c-5.8,4-12.7,6.8-20.7,8.2c9.9,0,18.8-0.1,26.6-0.3c16.6-0.2,29.4-1.4,38.6-3.3c14.5-3.2,27.2-10.8,38.2-22.8
		c-6.9,8.4-12.4,14.2-16.5,17.3c-7.3,5.3-16.3,8.7-27,10.1c-7.6,1-20.7,1.5-39.4,1.5c-2.2,0-5.3,0-9.5-0.2c-4.1-0.2-7.3-0.3-9.4-0.3
		c-2.9,0-7.1,0.3-12.7,0.7c-5.6,0.4-9.8,0.7-12.7,0.7h-3c-1.2,0-2.6,0-4.1-0.1c-6-0.3-8.9-1.6-8.9-3.9c0-2.3,4-3.5,12-3.5
		c1.6,0,3.2,0.2,4.9,0.5c2.2,0.6,4.5,1.2,7,1.9c2.5,0.7,4.6,1,6.4,1c4.3,0,8.3-0.7,11.8-2.1c7.7-2.8,15.2-9,22.4-18.5
		c-10.6-0.7-19.2-3.1-25.8-7.2c-7.2-4.3-10.8-9.8-10.8-16.5c0-3.3,0.9-6.4,2.7-9.3c2.8-4.7,7.4-8.4,13.7-11
		c6.3-2.6,13.6-3.9,21.8-3.9c3.8,0,8.1,0.5,12.9,1.6c4.8,1.1,8.6,2.4,11.5,4c4.6-8.2,10.9-15.5,18.9-21.9C367.7,4.2,377.9,0,387.9,0
		c11.1,0,16.7,4.8,16.7,14.2C404.6,22.9,400.1,32.2,391.2,42.2z M310.9,30.9c-9.1,0-16.3,1.8-21.6,5.6c-5.3,3.8-7.9,8.6-7.9,14.6
		c0,6.2,3.2,11.2,9.8,14.9c6,3.5,14.1,5.6,24.4,6.2c13.1-21.3,20.3-33.2,21.5-35.4C330.9,32.9,322.1,30.9,310.9,30.9z M385.7,1.6
		c-2.9,0-5.8,0.7-8.8,2.1c-6.5,3.2-13,8.7-19.3,16.3c-5.3,6.2-9.5,12.5-12.6,18.8c2,2.3,3.6,4,4.7,5.2c1.8,2.5,2.7,4.5,2.7,6
		c0,2.3-1.3,3.5-4,3.5c-2.7,0-4-1.1-4-3.4c0-0.3,0-0.9,0-1.6c0-0.7,0-1.2,0-1.5c0-1.4-0.6-2.9-1.8-4.6c-7.9,13.5-14,23.6-18.3,30.3
		c6.8-0.3,13.4-1.6,19.7-3.6c18.6-6.1,33.3-16.7,44.1-31.9c6.8-9.4,10.2-18.3,10.2-26.6C398.3,4.5,394.1,1.6,385.7,1.6z"/>
	<path class="st0" d="M407.6,92c-7.2,6.2-14.6,9.3-22.2,9.3c-5.4,0-8.1-2.4-8.1-7.2c0-3.2,1.3-7.1,3.9-11.6
		c5.5-9.8,11.3-18.4,17.1-25.8c4.5-5.8,7.9-8.6,10.4-8.6c2.4,0,3.7,0.5,3.7,1.4c0,0.8-0.5,1.6-1.4,2.4c-3.1,2.7-5.9,6-8.4,9.5
		c-11.2,16.4-16.9,26.4-16.9,30.1c0,3.5,1.9,5.3,5.7,5.3c1.2,0,3.1-0.6,5.7-1.7c10-4.5,17.7-10.8,23-19.1
		C417.7,81.5,413.6,86.8,407.6,92z M421.5,36.1c-3.7,0-5.5-1.2-5.5-3.7c0-2.5,1.9-3.7,5.7-3.7c3.8,0,5.7,1.3,5.7,4
		C427.3,35,425.4,36.1,421.5,36.1z"/>
	<path class="st0" d="M452.6,95.4c-6.1,4-13.4,6-21.8,6c-13.4,0-20.1-4.7-20.1-14c0-4,1.8-7.6,5.3-10.7c2.6-2.4,5.3-4,8.3-4.7
		l24-23.1c2.6-2.5,4.8-3.8,6.7-3.8c2.9,0,4.3,0.6,4.3,1.9c0,1.7-1.6,2.6-4.9,2.6c-2.7,0-4.1,0.8-4.1,2.5c1.8,4.1,3.3,7.1,4.7,9.1
		c4.5,6.7,6.7,13.4,6.7,20.1C461.7,86.8,458.7,91.4,452.6,95.4z M450.7,64.9c-1.2-3.8-2.4-7.6-3.6-11.3l-21.2,18.1
		c1.3-0.3,2.2-0.4,3-0.4c3,0,4.5,1,4.5,2.9c0,1.9-1.8,2.8-5.5,2.8c-2.7,0-5.3,1.3-7.7,3.7c-2.5,2.4-3.7,4.7-3.7,7
		c0,2.3,0.5,4.2,1.4,5.7c2.3,4,6.4,6,12.2,6c6.7,0,12.1-2.2,16.3-6.6c4.2-4.4,6.3-9.1,6.3-14.2v-2.2
		C452.8,73.1,452.1,69.3,450.7,64.9z"/>
	<path class="st0" d="M495.7,92c-7.2,6.2-14.6,9.3-22.2,9.3c-5.4,0-8.1-2.4-8.1-7.2c0-3.2,1.3-7.1,3.9-11.6
		c5.6-9.8,11.3-18.4,17.1-25.8c4.5-5.8,7.9-8.6,10.3-8.6c2.5,0,3.7,0.5,3.7,1.4c0,0.8-0.5,1.6-1.4,2.4c-3.1,2.7-5.8,6-8.3,9.5
		c-11.3,16.4-16.9,26.4-16.9,30.1c0,3.5,1.9,5.3,5.7,5.3c1.2,0,3.1-0.6,5.7-1.7c10.1-4.5,17.7-10.8,23-19.1
		C505.8,81.5,501.6,86.8,495.7,92z M509.5,36.1c-3.7,0-5.5-1.2-5.5-3.7c0-2.5,1.9-3.7,5.7-3.7c3.8,0,5.8,1.3,5.8,4
		C515.4,35,513.4,36.1,509.5,36.1z"/>
	<path class="st0" d="M544.5,91.9c-9,6.2-18,9.4-26.9,9.4c-5,0-8.7-0.9-11.3-2.7c-2.6-1.8-3.9-5.3-3.9-10.5c0-5.8,2.7-11.8,8.1-18.3
		c5-5.8,11.2-10.8,18.5-15c7.1-4,12.9-5.9,17.7-5.9c7.6,0,11.3,1.9,11.3,5.8c0,1.6-0.8,3.3-2.4,5.3c-2.9,3.4-7,6.3-12.1,8.7
		c-5.6,2.5-11.2,3.8-16.9,3.8c-1.5,0-5-0.2-10.3-0.6c-1.6,1.7-2.7,3.9-3.8,6.7c-1,2.8-1.5,5-1.5,6.6c0,3.6,0.5,6.2,1.6,7.7
		c1.8,2.4,5.2,3.6,10.2,3.6c6.3,0,13.6-2.5,21.8-7.6c7.1-4.3,12.1-8.6,15.3-12.9C557.4,81.2,552.4,86.5,544.5,91.9z M543.5,52.8
		c-4.3,0-9.2,1.9-14.5,5.7c-3.8,2.7-7.1,5.7-10,9.2c2.3,1.7,5.8,2.6,10.4,2.6c5.2,0,10-1.8,14.2-5.2c3.7-3,5.7-5.7,5.7-8
		C549.3,54.2,547.4,52.8,543.5,52.8z M542.1,40.5c-5.2-4.3-7.7-8.8-7.7-13.3c0-2.8,1.4-4.2,4.2-4.2c2.1,0,3.1,0.8,3.1,2.3
		c0,0.7-0.2,1.8-0.8,3.3c-0.5,1.5-0.8,2.8-0.8,3.8c0,4.3,2.3,8.2,6.9,11.8C545.1,43.1,543.5,41.9,542.1,40.5z"/>
	<path class="st0" d="M606.5,59.3c-2.6,0-4-1.3-4.4-3.8c-0.3-2.5-1.9-3.8-4.6-3.8c-3.2,0-7.6,1.9-13.1,5.7
		c-5.5,3.8-9.2,7.2-11.3,10.2c-4.9,7.2-8.4,12.9-10.6,17.1c-3.2,6.1-4.9,10.4-4.9,12.7c0,2.6-1.8,3.9-5.5,3.9
		c-1.8,0-2.6-1.1-2.6-3.4v-0.8c0.1-0.8,0.4-2,1-3.5c1.2-3.1,3.4-7.4,6.6-12.9c5.9-10,11.4-18,16.5-24.2c4.8-5.8,8.7-8.6,11.6-8.6
		c2.3,0,3.4,0.5,3.4,1.6c0,0.8-0.8,1.6-2.2,2.4c-1.5,0.8-3.2,2.3-5.3,4.6c-0.8,0.8-2.3,2.6-4.7,5.3c3.3-3.1,6.3-5.6,9-7.4
		c5.8-3.7,12-5.7,18.5-5.7c4.5,0,6.9,1.6,6.9,4.9C611,57.4,609.4,59.3,606.5,59.3z"/>
	<path class="st0" d="M642.1,91.9c-9.1,6.2-18,9.4-26.9,9.4c-5,0-8.8-0.9-11.4-2.7c-2.6-1.8-3.9-5.3-3.9-10.5
		c0-5.8,2.7-11.8,8.2-18.3c5-5.8,11.1-10.8,18.5-15c7-4,12.9-5.9,17.7-5.9c7.6,0,11.4,1.9,11.4,5.8c0,1.6-0.8,3.3-2.4,5.3
		c-3,3.4-7.1,6.3-12.2,8.7c-5.5,2.5-11.1,3.8-16.8,3.8c-1.5,0-4.9-0.2-10.4-0.6c-1.5,1.7-2.7,3.9-3.7,6.7c-1,2.8-1.6,5-1.6,6.6
		c0,3.6,0.6,6.2,1.7,7.7c1.7,2.4,5.1,3.6,10.2,3.6c6.3,0,13.6-2.5,21.8-7.6c7-4.3,12.1-8.6,15.2-12.9
		C655,81.2,649.9,86.5,642.1,91.9z M641,52.8c-4.3,0-9.1,1.9-14.4,5.7c-3.8,2.7-7.1,5.7-10,9.2c2.3,1.7,5.8,2.6,10.3,2.6
		c5.3,0,10.1-1.8,14.3-5.2c3.8-3,5.7-5.7,5.7-8C647,54.2,645,52.8,641,52.8z"/>
	<path class="st0" d="M845.8,76.2c-8.3,3.7-17.1,6.6-26.2,8.5c-4.3,2.5-8.9,4.7-13.8,6.6c-15.6,6.1-31.1,9.1-46.6,9.1
		c-1.6,0-4,0-7.3-0.2c-3.2-0.1-5.7-0.2-7.3-0.2h-4.3c-3,0-5.5,0-7.6,0.1c-11.5,0.8-18.7,1.2-21.5,1.2c-3.4,0-6.1,0-8.2-0.1
		c-5.2-0.3-7.7-1.4-7.7-3.2c0-2.3,4.1-3.5,12.2-3.5c2.6,0,6.1,0.2,10.8,0.6l5.8,0.5c1.9,0.2,4,0.2,6.4,0.2c1.5,0,3.1,0,5.1-0.2
		c7.3-0.7,13.2-3,17.7-6.9c-18.7-1.9-33.3-6.7-44-14.4c-9.3-6.8-14-14.3-14-22.6c0-10.5,5.8-19.7,17.5-27.6
		c13.8-9.4,33.1-14.1,57.9-14.1c14.3,0,26.9,1.5,37.8,4.4c4.5-5.3,9.3-9.2,14.7-11.6C827.4,1,831,0,834,0c3.1,0,4.7,0.8,4.7,2.4
		c0,1.2-2.6,1.8-7.7,1.8c-5.5,0-11.1,4.1-16.4,12.3c10.2,3.4,18.2,7.9,24.1,13.7c5.9,5.8,8.9,12.3,8.9,19.6c0,5.7-2.1,11.4-6.2,17.1
		c-4.1,5.7-9.5,10.6-16.2,14.7c14.5-3.7,26.2-8.5,35.2-14.5C856.5,70.4,851.8,73.4,845.8,76.2z M769.5,12.7
		c-20.7,0-36.6,2.6-47.6,7.9c-12.9,6-19.3,15.7-19.3,28.7c0,9,5.8,16.9,17.5,23.7c10,5.8,22.7,9.9,37.8,12.3
		c10.3-9.2,18.7-19.5,25.2-31.1l5.7-9.8c1.9-3.4,3.9-6.6,5.9-9.8c4.8-7.7,8.3-13,10.6-15.9C793.8,14.6,781.8,12.7,769.5,12.7z
		 M770.5,89.6c-3.5,0-6.9-0.1-10.2-0.3c-2.6,1.6-5,2.8-7.3,3.8c-4,1.6-9.3,2.9-16.1,3.9c8,1,16.6,1.4,26,1.4
		c4.8,0,11.5-0.9,20.1-2.7c10.5-2.2,19.7-5.2,27.7-9.1C798.4,88.6,784.9,89.6,770.5,89.6z M811.8,20.9c-8.4,14.6-14.7,25.6-18.7,33
		c-8.4,14.2-17.7,24.9-28,32.2l7.7,0.5c2.6,0.2,5.1,0.3,7.5,0.3c11.7,0,23.7-1.1,36-3.4c6.8-4,12.2-9,16.3-14.9
		c4-5.9,6.1-11.7,6.1-17.5C838.7,38.3,829.7,28.2,811.8,20.9z"/>
	<path class="st0" d="M893.3,87.1c-8.8,9.6-19.6,14.4-32.3,14.4c-8.7,0-13-4.1-13-12.5c0-8.7,5-17.5,15.1-26.7
		c10.1-9.2,19.2-13.8,27.4-13.8c4.7,0,8.2,0.7,10.3,2.1c2.7,1.9,4.1,5.4,4.1,10.5C904.9,70,901.1,78.7,893.3,87.1z M888.7,53.6
		c-8.7,0-16.8,4.4-24.6,13.3c-5.3,6-8,12.3-8,18.7c0,7.7,3.5,11.5,10.6,11.5c4,0,8-1,11.8-3.1c6-3.2,10.8-8,14.4-14.2
		c3.4-5.7,5.1-11.3,5.1-16.6C898,56.7,894.9,53.6,888.7,53.6z"/>
	<path class="st0" d="M955.6,59.3c-2.6,0-4.1-1.3-4.4-3.8c-0.3-2.5-1.8-3.8-4.6-3.8c-3.2,0-7.6,1.9-13.1,5.7
		c-5.5,3.8-9.3,7.2-11.3,10.2c-4.9,7.2-8.4,12.9-10.6,17.1c-3.2,6.1-4.9,10.4-4.9,12.7c0,2.6-1.9,3.9-5.5,3.9
		c-1.8,0-2.7-1.1-2.7-3.4v-0.8c0.1-0.8,0.4-2,1-3.5c1.2-3.1,3.5-7.4,6.7-12.9c5.8-10,11.3-18,16.5-24.2c4.9-5.8,8.8-8.6,11.6-8.6
		c2.3,0,3.5,0.5,3.5,1.6c0,0.8-0.8,1.6-2.2,2.4c-1.5,0.8-3.2,2.3-5.3,4.6c-0.8,0.8-2.4,2.6-4.7,5.3c3.3-3.1,6.3-5.6,9-7.4
		c5.8-3.7,12-5.7,18.5-5.7c4.6,0,6.9,1.6,6.9,4.9C960,57.4,958.5,59.3,955.6,59.3z"/>
	<path class="st0" d="M991.1,91.9c-9.1,6.2-18,9.4-26.8,9.4c-5,0-8.8-0.9-11.4-2.7c-2.6-1.8-3.9-5.3-3.9-10.5
		c0-5.8,2.7-11.8,8.2-18.3c5-5.8,11.2-10.8,18.5-15c7-4,13-5.9,17.7-5.9c7.6,0,11.4,1.9,11.4,5.8c0,1.6-0.8,3.3-2.4,5.3
		c-3,3.4-7.1,6.3-12.2,8.7c-5.5,2.5-11.1,3.8-16.9,3.8c-1.5,0-4.9-0.2-10.3-0.6c-1.5,1.7-2.7,3.9-3.8,6.7c-1.1,2.8-1.6,5-1.6,6.6
		c0,3.6,0.6,6.2,1.6,7.7c1.8,2.4,5.2,3.6,10.2,3.6c6.4,0,13.7-2.5,21.8-7.6c7-4.3,12.2-8.6,15.3-12.9
		C1004.1,81.2,999,86.5,991.1,91.9z M990.1,52.8c-4.3,0-9.2,1.9-14.4,5.7c-3.8,2.7-7.1,5.7-9.9,9.2c2.3,1.7,5.7,2.6,10.3,2.6
		c5.3,0,10-1.8,14.2-5.2c3.8-3,5.8-5.7,5.8-8C996,54.2,994,52.8,990.1,52.8z M1010.4,36.1c-5.4,3.7-10.8,6.4-16.4,8
		c9.3-4.5,15.3-10.5,17.7-17.7c0.8-2.3,2.2-3.4,4.2-3.4c1.7,0,2.5,0.9,2.5,2.8C1018.4,29,1015.7,32.4,1010.4,36.1z"/>
	<path class="st0" d="M1042.8,91.9c-9.1,6.2-18,9.4-26.9,9.4c-5,0-8.8-0.9-11.3-2.7c-2.6-1.8-3.9-5.3-3.9-10.5
		c0-5.8,2.7-11.8,8.1-18.3c5-5.8,11.2-10.8,18.5-15c7.1-4,12.9-5.9,17.7-5.9c7.6,0,11.3,1.9,11.3,5.8c0,1.6-0.8,3.3-2.4,5.3
		c-2.9,3.4-7,6.3-12.1,8.7c-5.6,2.5-11.2,3.8-16.9,3.8c-1.5,0-5-0.2-10.4-0.6c-1.5,1.7-2.8,3.9-3.8,6.7c-1,2.8-1.5,5-1.5,6.6
		c0,3.6,0.5,6.2,1.6,7.7c1.8,2.4,5.2,3.6,10.2,3.6c6.3,0,13.6-2.5,21.8-7.6c7.1-4.3,12.1-8.6,15.2-12.9
		C1055.7,81.2,1050.7,86.5,1042.8,91.9z M1041.8,52.8c-4.3,0-9.2,1.9-14.5,5.7c-3.8,2.7-7.1,5.7-10,9.2c2.3,1.7,5.8,2.6,10.4,2.6
		c5.2,0,10-1.8,14.2-5.2c3.7-3,5.7-5.7,5.7-8C1047.6,54.2,1045.7,52.8,1041.8,52.8z"/>
</g>
<g>
	<g>
		<path class="st1" d="M490.1-502.6c61.3-0.3,116.9,24.7,157.2,65.3c40.2,40.5,65.3,96.7,65.5,158.8c0.2,62.1-24.4,118.5-64.3,159.5
			C608.7-78.2,553.3-52.8,492-52.5c-61.2,0.3-116.8-24.7-157.1-65.3c-40.3-40.5-65.4-96.7-65.6-158.8
			c-0.3-62.1,24.3-118.5,64.3-159.4C373.5-476.9,428.9-502.3,490.1-502.6L490.1-502.6z M641.7-431.7
			c-38.9-39.1-92.5-63.2-151.6-62.9c-59.1,0.3-112.5,24.8-151,64.2c-38.5,39.5-62.3,93.8-62,153.8c0.2,59.9,24.4,114.1,63.3,153.2
			c38.9,39.1,92.5,63.1,151.5,62.9c59-0.3,112.4-24.7,151-64.3c38.5-39.4,62.3-93.8,61.9-153.7C704.7-338.4,680.5-392.6,641.7-431.7
			L641.7-431.7z"/>
	</g>
</g>
</svg>
